<?xml version="1.0" encoding="UTF-8" standalone="no"?>
<!-- Created with Inkscape (http://www.inkscape.org/) -->

<svg
   xmlns:dc="http://purl.org/dc/elements/1.1/"
   xmlns:cc="http://creativecommons.org/ns#"
   xmlns:rdf="http://www.w3.org/1999/02/22-rdf-syntax-ns#"
   xmlns:svg="http://www.w3.org/2000/svg"
   xmlns="http://www.w3.org/2000/svg"
   xmlns:sodipodi="http://sodipodi.sourceforge.net/DTD/sodipodi-0.dtd"
   xmlns:inkscape="http://www.inkscape.org/namespaces/inkscape"
   width="200"
   height="400"
   viewBox="0 0 52.916666 105.83333"
   version="1.1"
   id="svg8"
   inkscape:version="0.92.3 (2405546, 2018-03-11)"
   sodipodi:docname="CATLMK7.svg">
  <sodipodi:namedview
     id="base"
     pagecolor="#ffffff"
     bordercolor="#666666"
     borderopacity="1.0"
     inkscape:pageopacity="0.0"
     inkscape:pageshadow="2"
     inkscape:zoom="3.959798"
     inkscape:cx="60.811368"
     inkscape:cy="260.86898"
     inkscape:document-units="mm"
     inkscape:current-layer="g14"
     showgrid="false"
     units="px"
     inkscape:window-width="1920"
     inkscape:window-height="1178"
     inkscape:window-x="-8"
     inkscape:window-y="-8"
     inkscape:window-maximized="1">
    <sodipodi:guide
       id="guide11"
       position="26.4583333328,0"
       orientation="1,0"
       inkscape:locked="false" />
    <sodipodi:guide
       id="guide13"
       position="0,52.9166666656"
       orientation="0,1"
       inkscape:locked="false" />
  </sodipodi:namedview>
  <defs
     id="defs2" />
  <metadata
     id="metadata5">
    <rdf:RDF>
      <cc:Work
         rdf:about="">
        <dc:format>image/svg+xml</dc:format>
        <dc:type
           rdf:resource="http://purl.org/dc/dcmitype/StillImage" />
        <dc:title></dc:title>
      </cc:Work>
    </rdf:RDF>
  </metadata>
  <g
     transform="translate(0,-191.16667)"
     id="layer1"
     inkscape:groupmode="layer"
     inkscape:label="Calque 1">
    <g
       id="g1619"
       transform="matrix(0.26458333,0,0,0.26458333,12.96981,202.21544)">
      <g
         transform="matrix(12.509535,0,0,-12.509535,76.99458,81.27656)"
         id="g14">
        <path
           inkscape:connector-curvature="0"
           id="path16"
           style="fill:#231f20;fill-opacity:1;fill-rule:evenodd;stroke:none"
           d="m -3.322061,-5.925 h 0.34 l 0.291,0.492 0.486,0.264 0.578,-0.073 0.395,-0.375 0.178,-0.308 h 0.31200002 l -1.30400002,5.499 -1.276,-5.499 m 1.303,-0.879 0.488,0.289 0.111,0.566 -0.398,0.42 -0.58,-0.096 -0.258,-0.507 0.242,-0.526 0.395,-0.146 m -2.494,0.426 v 0.453 h 0.623 l 1.844,7.995 1.87000002,-7.995 h 0.623 V -6.378 H -1.054061 l -0.324,-0.481 -0.485,-0.264 -0.557,0.088 -0.388,0.385 -0.174,0.272 z"
           sodipodi:nodetypes="cccccccccccccccccccccccccccccccc" />
      </g>
    </g>
  </g>
</svg>
